<svg width="240" height="157" viewBox="0 0 240 157" fill="none" xmlns="http://www.w3.org/2000/svg">
<path d="M41.3087 97.0697L35.1317 90.0807L55.0837 76.2477V80.2497L35.1317 66.4167L41.3087 59.3697L61.8117 74.0147V82.4827L41.3087 97.0697ZM67.9429 97.9688V89.8487H108.775V97.9688H67.9429ZM116.836 59.0507H130.118L138.731 79.8147H138.006L146.619 59.0507H159.379V97.9688H150.041V70.2737H151.317L141.312 94.3438H135.309L125.362 70.3317H126.116V97.9688H116.836V59.0507ZM169.228 59.0507H178.508V74.3917H193.211V59.0507H202.578V97.9688H193.211V82.5697H178.508V97.9688H169.228V59.0507Z" fill="white"/>
<rect x="7.4375" y="7.53125" width="225" height="142" rx="25.5" stroke="white" stroke-width="13" stroke-linejoin="round"/>
</svg>
